Coordinates
version=1
nRows=30
nColumns=23
inDegrees=yes

Units are S.I. units (second, meters, Newtons, ...)
If the header above contains a line with 'inDegrees', this indicates whether rotational values are in degrees (yes) or radians (no).

endheader
time	pelvis_tilt	pelvis_list	pelvis_rotation	pelvis_tx	pelvis_ty	pelvis_tz	hip_flexion_r	hip_adduction_r	hip_rotation_r	knee_angle_r	knee_angle_r_beta	ankle_angle_r	subtalar_angle_r	mtp_angle_r	hip_flexion_l	hip_adduction_l	hip_rotation_l	knee_angle_l	knee_angle_l_beta	ankle_angle_l	subtalar_angle_l	mtp_angle_l
     15.00000000	    -11.01839821	      0.71810847	      3.91476177	      2.24786465	      0.93862548	      1.03595832	     39.96081265	     -4.85645953	     -6.96030047	     79.42043795	      1.38614814	     -0.19953677	    -11.68176899	      0.00000000	      1.06701655	      0.42949729	     -7.08420876	     23.38141021	      0.40808259	     15.00230830	     11.59617722	      0.00000000
     15.00666667	    -11.13271096	      0.22383118	      3.63249659	      2.24954108	      0.94337863	      1.03648441	     40.53837877	     -3.92223347	     -7.07765812	     76.09507903	      1.32810967	      0.22754368	    -12.62224997	      0.00000000	     -1.25907957	      0.08078352	     -6.76347382	     20.77639374	      0.36261648	     10.84420132	     10.46263016	      0.00000000
     15.01333333	    -11.21287956	     -0.30495492	      3.41066779	      2.25131987	      0.94805004	      1.03695883	     40.89492775	     -3.02673746	     -7.30443567	     72.50982403	      1.26553517	      0.65020723	    -13.40361856	      0.00000000	     -3.44931883	     -0.33375719	     -6.49354539	     18.42507279	      0.32157819	      6.50909561	      9.30730726	      0.00000000
     15.02000000	    -12.22055696	     -0.48343934	      3.18314401	      2.25245802	      0.95100833	      1.03754922	     42.30179601	     -2.54053108	     -7.32383100	     69.01304691	      1.20450490	      1.27515863	    -13.58906534	      0.00000000	     -4.05891632	     -0.55673605	     -7.23439977	     17.25318199	      0.30112483	      2.69055874	      9.50822370	      0.00000000
     15.02666667	    -11.54988598	     -1.27047397	      3.03450082	      2.25476376	      0.95652090	      1.03788260	     41.36510208	     -1.44244251	     -7.82011188	     64.68171251	      1.12890885	      1.43881875	    -14.29731044	      0.00000000	     -6.93766892	     -1.19193991	     -6.48669036	     14.92851712	      0.26055178	     -1.96822255	      7.25510950	      0.00000000
     15.03333333	    -11.75415742	     -1.68237267	      2.92381254	      2.25641138	      0.96031849	      1.03821897	     41.41201545	     -0.84085288	     -8.19129125	     60.45270430	      1.05509873	      1.90894374	    -14.06645824	      0.00000000	     -8.24930490	     -1.60620469	     -6.70070637	     13.89330231	      0.24248387	     -5.86967840	      6.25698707	      0.00000000
     15.04000000	    -12.79239841	     -1.56170738	      2.73813053	      2.25737968	      0.96254103	      1.03873083	     42.41854974	     -0.70190509	     -8.13265888	     56.35125639	      0.98351496	      2.63242529	    -13.35815530	      0.00000000	     -8.15790418	     -1.52744540	     -7.43216738	     13.91230789	      0.24281558	     -8.96530690	      6.16691408	      0.00000000
     15.04666667	    -12.40164439	     -2.15812987	      2.63973545	      2.25932102	      0.96666187	      1.03894108	     41.39080665	      0.04621290	     -8.77225334	     51.46660509	      0.89826171	      3.11597670	    -12.52608322	      0.00000000	     -9.93194857	     -2.08969916	     -7.41552256	     13.15240314	      0.22955274	    -12.37823908	      3.86478800	      0.00000000
     15.05333333	    -12.68582141	     -2.34076512	      2.53165892	      2.26066339	      0.96935491	      1.03919465	     41.11397753	      0.37789197	     -9.20178754	     46.69543818	      0.81498914	      3.92698202	    -10.91619091	      0.00000000	    -10.45216271	     -2.31973410	     -7.99918392	     13.51844804	      0.23594143	    -14.84227404	      2.67533378	      0.00000000
     15.06000000	    -13.58907859	     -2.09268885	      2.16504504	      2.26146698	      0.97068905	      1.03991183	     41.52880117	      0.56282090	     -9.00972342	     41.98487125	      0.73277424	      4.81480192	     -9.25405487	      0.00000000	    -10.06648430	     -2.09538609	     -9.00338760	     14.44890308	      0.25218093	    -16.69534899	      1.55383018	      0.00000000
     15.06666667	    -13.56021982	     -2.43681841	      2.19881489	      2.26284789	      0.97304967	      1.04003810	     40.54944238	      1.00529372	     -9.73654464	     36.77074728	      0.64177061	      5.83375913	     -6.72222150	      0.00000000	    -10.57849708	     -2.56821617	     -9.63567175	     15.52959271	      0.27104252	    -18.03483424	      0.16308795	      0.00000000
     15.07333333	    -14.18167119	     -2.30146123	      1.87850186	      2.26353456	      0.97384010	      1.04092532	     40.34663529	      1.41962794	     -9.40621806	     31.73387203	      0.55386055	      6.86437874	     -4.52135940	      0.00000000	    -10.18144993	     -2.55605516	    -10.76321879	     17.15387530	      0.29939160	    -18.88963482	     -1.24104185	      0.00000000
     15.08000000	    -13.78879867	     -2.87822963	      1.87994546	      2.26502987	      0.97575820	      1.04143922	     38.56708281	      2.41414706	     -9.50225505	     26.02286503	      0.45418468	      7.74812676	     -2.18854111	      0.00000000	    -10.83240168	     -3.44419307	    -11.99781780	     18.86210785	      0.32920589	    -19.14142844	     -1.92188987	      0.00000000
     15.08666667	    -13.74139059	     -3.19379776	      1.86247349	      2.26620643	      0.97657820	      1.04215578	     37.08773649	      3.32889219	     -8.59128509	     20.37327327	      0.35558070	      8.38771789	     -0.62588271	      0.00000000	    -10.95221599	     -4.10727860	    -13.17664465	     20.93349809	      0.36535847	    -18.99853164	     -2.69582534	      0.00000000
     15.09333333	    -14.36259331	     -2.80630008	      1.53898027	      2.26687159	      0.97570185	      1.04326013	     36.61585475	      3.61259072	     -7.01678882	     15.68195206	      0.27370170	      9.59047986	      1.57037058	      0.00000000	    -10.36989518	     -3.88722592	    -14.04074065	     23.01610502	      0.40170681	    -18.80140721	     -4.06024555	      0.00000000
     15.10000000	    -12.59331657	     -4.03000007	      2.17230077	      2.26954295	      0.97773993	      1.04291886	     32.13609679	      5.24487400	     -4.50286481	      8.51016042	      0.14853032	      8.53390724	      0.06013499	      0.00000000	    -12.28268927	     -5.81609820	    -15.28297727	     25.16501118	      0.43921230	    -18.16634738	     -3.92422955	      0.00000000
     15.10666667	    -12.16804338	     -3.99287799	      2.34436971	      2.27098394	      0.97696642	      1.04307319	     30.12052043	      5.40146210	     -2.47733922	      3.91316213	      0.06829756	      8.73466826	      0.64423924	      0.00000000	    -12.63929199	     -6.20134376	    -15.97890651	     27.54287872	      0.48071392	    -17.58785210	     -4.66348800	      0.00000000
     15.11333333	    -12.33328235	     -3.51902892	      2.07061326	      2.27144636	      0.97487402	      1.04394653	     29.65604384	      5.11679141	     -1.30711460	      1.57498792	      0.02748872	      9.62248980	      2.29766593	      0.00000000	    -12.21335335	     -6.04873300	    -16.72730710	     30.23080304	      0.52762705	    -17.05721279	     -5.68685815	      0.00000000
     15.12000000	    -12.71733492	     -3.01277089	      1.49145182	      2.27125850	      0.97213497	      1.04542468	     30.05597193	      4.89857047	     -0.84583993	      0.87988700	      0.01535693	     10.76607366	      4.34274854	      0.00000000	    -11.38862926	     -5.88407086	    -17.69759834	     33.23507905	      0.58006156	    -16.47456950	     -6.61857366	      0.00000000
     15.12666667	    -12.57208279	     -2.83498243	      0.93083413	      2.27118784	      0.96983668	      1.04675567	     29.88500272	      5.02857641	     -0.37936277	      0.63070566	      0.01100789	     11.39505795	      5.39015393	      0.00000000	    -11.06579958	     -6.04580796	    -18.51362716	     36.23007730	      0.63233414	    -16.14419708	     -7.95095608	      0.00000000
     15.13333333	    -12.48385475	     -3.00322097	      0.58828753	      2.27123511	      0.96732134	      1.04781068	     29.67378453	      5.38131445	     -0.54620680	      0.62659625	      0.01093617	     11.45686226	      6.33950686	      0.00000000	    -10.46904883	     -6.71266051	    -19.20640035	     39.52943659	      0.68991882	    -15.75657912	     -8.76772021	      0.00000000
     15.14000000	    -11.82097370	     -3.53101242	      0.31460097	      2.27158925	      0.96532044	      1.04856595	     28.65030635	      6.07793098	     -0.50977725	      0.69177995	      0.01207384	     10.76005588	      6.09598715	      0.00000000	    -10.46204151	     -7.71491877	    -19.72572258	     42.73050452	      0.74578799	    -15.69263325	    -10.05567912	      0.00000000
     15.14666667	    -10.66388217	     -4.46176676	      0.24242465	      2.27223342	      0.96367795	      1.04894397	     26.93732875	      7.10272536	     -0.60347436	      0.84383299	      0.01472766	      9.35839865	      4.97665686	      0.00000000	    -10.89096652	     -9.22274042	    -20.18539910	     45.99324274	      0.80273352	    -15.55863703	    -10.85254151	      0.00000000
     15.15333333	     -9.33347532	     -5.57966156	      0.21087543	      2.27284701	      0.96200640	      1.04915458	     25.03763098	      8.32679102	     -0.67365055	      1.31575499	      0.02296426	      7.38454601	      3.16973650	      0.00000000	    -11.42661661	    -10.90185588	    -20.51629144	     49.24496808	      0.85948683	    -15.62727407	    -11.79063843	      0.00000000
     15.16000000	     -8.19427482	     -6.68383056	      0.07019161	      2.27299776	      0.95979809	      1.04953688	     23.69325408	      9.57622884	     -1.01523219	      2.74172597	      0.04785215	      5.37075844	      1.13000850	      0.00000000	    -11.62318445	    -12.54709697	    -20.79300916	     52.61198426	      0.91825235	    -15.68991118	    -12.60767312	      0.00000000
     15.16666667	     -7.06811264	     -7.66364350	     -0.31420114	      2.27257182	      0.95729049	      1.05021743	     22.88753826	     10.73355606	     -1.85757276	      5.45443656	      0.09519788	      3.73822968	     -0.37269120	      0.00000000	    -11.75524399	    -13.92398415	    -21.03379036	     55.92243146	      0.97603055	    -15.89243239	    -13.63451829	      0.00000000
     15.17333333	     -7.45550468	     -7.93712364	     -1.37257177	      2.27060275	      0.95234808	      1.05193875	     24.66151059	     11.22605807	     -2.90764906	     10.29872330	      0.17974663	      3.41641207	     -1.28801701	      0.00000000	    -10.01955151	    -14.54937623	    -21.40015780	     59.68612545	      1.04171941	    -15.77089116	    -14.15026765	      0.00000000
     15.18000000	     -7.59299128	     -8.05412230	     -2.34538198	      2.26862060	      0.94738419	      1.05327852	     26.16089003	     11.42302777	     -3.92495827	     15.32959942	      0.26755198	      3.49875150	     -1.81258456	      0.00000000	     -8.46198667	    -14.93516681	    -21.51908337	     63.26868305	      1.10424683	    -15.56422782	    -14.46247188	      0.00000000
     15.18666667	     -7.80893483	     -7.85556673	     -3.28460032	      2.26645603	      0.94204316	      1.05433954	     27.73631093	     11.21454354	     -4.64400437	     20.50987467	      0.35796484	      4.36188227	     -1.93457609	      0.00000000	     -6.66009930	    -14.86089842	    -21.29847875	     66.71279281	      1.16435789	    -15.40494524	    -14.90902233	      0.00000000
     15.19333333	     -7.93755063	     -7.65609214	     -4.12306827	      2.26435506	      0.93677338	      1.05513944	     28.94244614	     11.00953485	     -4.85718658	     25.25602478	      0.44080079	      5.71439235	     -2.01900071	      0.00000000	     -4.83229371	    -14.77415289	    -20.94901204	     70.02969513	      1.22224875	    -15.02581389	    -14.94873705	      0.00000000
